<svg class="footer-logo" width="170" height="171" viewBox="0 0 170 171" fill="none" xmlns="http://www.w3.org/2000/svg">
  <path d="M26.7619 67.916L25.8359 67.5355C26.5797 65.7241 26.1273 64.4797 24.4777 63.8024L11.055 58.2904C9.24123 57.5459 7.93245 58.1511 7.12944 60.1062L6.20312 59.7261L12.7073 43.8869L18.5911 45.7257L18.2401 46.8445C17.1347 46.6069 16.2151 46.5484 15.4804 46.6674C14.7457 46.7867 14.1198 47.0526 13.6015 47.4653C13.0835 47.8788 12.6371 48.4222 12.2632 49.0988C11.8894 49.775 11.516 50.5658 11.1445 51.4717L10.764 52.3972C10.248 53.6538 10.4126 54.4544 11.2564 54.8012L16.6902 57.0327C17.452 57.3453 18.0736 56.9149 18.5558 55.7416L18.7455 55.2787C19.0247 54.5993 19.1978 54.0453 19.2661 53.6161C19.3337 53.1873 19.296 52.8107 19.1523 52.4872C19.0089 52.164 18.7616 51.8573 18.4105 51.5691C18.0603 51.2809 17.591 50.9436 17.0036 50.5583L17.4347 49.5087L25.3082 52.7412L24.877 53.7916L24.2598 53.5379C23.9715 53.4194 23.6531 53.331 23.304 53.2721C22.9557 53.2136 22.5917 53.2497 22.212 53.3828C21.8327 53.5156 21.4514 53.7865 21.0673 54.1937C20.6837 54.6013 20.3185 55.2276 19.9718 56.0711L19.3887 57.491C19.2363 57.8617 19.4692 58.1734 20.0864 58.4275L25.737 60.7478C27.3839 61.424 28.642 60.7018 29.5129 58.5818L30.4388 58.9619L26.7619 67.916Z" fill="white"></path>
  <path d="M38.1992 45.4043L37.5132 44.6751C38.9394 43.3337 39.2402 42.224 38.4152 41.3472L27.6033 29.8537C26.4426 28.6199 25.06 28.7574 23.4551 30.2672L22.7695 29.538L29.8192 22.9058L30.5056 23.6354C29.0142 25.038 28.8493 26.3558 30.01 27.5896L40.8226 39.0838C41.4643 39.7663 42.3116 39.6116 43.3648 38.6205L44.4835 37.5681C45.2284 36.8672 45.8276 36.2044 46.2796 35.5804C46.7316 34.9573 47.0602 34.3647 47.2664 33.8044C47.6139 32.7446 47.1635 30.9838 45.9168 28.521L46.6648 28.0011L50.6461 33.6952L38.1992 45.4043Z" fill="white"></path>
  <path d="M67.5415 25.5262C68.7356 25.1697 69.6843 24.6145 70.388 23.8597C71.0913 23.105 71.59 22.2082 71.8841 21.1695C72.1778 20.1317 72.2811 18.982 72.1955 17.7207C72.1091 16.4598 71.8625 15.1483 71.4561 13.7861C71.0748 12.5088 70.5729 11.3143 69.9506 10.2014C69.3278 9.08899 68.5907 8.15561 67.7386 7.40129C66.8865 6.64697 65.9123 6.12629 64.8168 5.83885C63.7208 5.5522 62.5114 5.606 61.1896 6.00024C59.9743 6.36307 59.0252 6.93676 58.342 7.72014C57.658 8.50391 57.1891 9.42041 56.9339 10.4708C56.6778 11.5204 56.6134 12.6647 56.7387 13.9016C56.8648 15.1397 57.118 16.397 57.4993 17.6744C57.9187 19.0794 58.448 20.3473 59.0877 21.477C59.7266 22.6079 60.4679 23.5346 61.311 24.2571C62.1533 24.9789 63.0988 25.4618 64.1465 25.7053C65.1945 25.9488 66.3262 25.8891 67.5415 25.5262ZM67.6581 26.8495C66.144 27.3019 64.6632 27.4358 63.2151 27.2528C61.7677 27.0706 60.4318 26.6214 59.2082 25.9071C57.9847 25.1921 56.9127 24.2465 55.9926 23.0701C55.0722 21.894 54.3866 20.5483 53.9346 19.0346C53.5141 17.6269 53.3499 16.1842 53.4434 14.7046C53.5357 13.2266 53.8859 11.833 54.4942 10.525C55.1017 9.21701 55.9573 8.05627 57.0599 7.042C58.1618 6.02851 59.5012 5.28518 61.0793 4.81437C62.6355 4.34945 64.1508 4.19316 65.6245 4.34552C67.0982 4.49788 68.4541 4.91764 69.693 5.60442C70.9307 6.2916 72.014 7.21595 72.9415 8.37826C73.8694 9.54175 74.566 10.9012 75.0306 12.4577C75.4378 13.8223 75.5858 15.2524 75.4751 16.7485C75.3647 18.2445 75.0031 19.6585 74.3905 20.9909C73.7783 22.3232 72.9082 23.5122 71.7804 24.5567C70.6523 25.6016 69.2783 26.3662 67.6581 26.8495Z" fill="white"></path>
  <path d="M103.388 27.1812L101.752 11.4959L93.7728 24.767L92.5072 24.6045L90.1787 4.02454C89.879 2.48841 89.2209 1.5994 88.2031 1.35829L88.434 0.384077L96.5863 2.31484L96.3558 3.28906C95.3812 3.05817 94.7015 3.00634 94.317 3.13317C93.9326 3.25922 93.6919 3.52938 93.5945 3.94129C93.5686 4.05006 93.5655 4.18082 93.5867 4.33514C93.6071 4.48907 93.6299 4.65988 93.6538 4.84915L95.0392 19.8531L101.633 9.24786L101.16 5.59522C101.118 5.19666 100.934 4.86053 100.61 4.58881C100.285 4.31708 99.7763 4.09914 99.0837 3.93579L99.3146 2.96118L107.726 4.9536L107.495 5.92782C105.893 5.5481 104.987 5.80373 104.776 6.69274C104.755 6.77992 104.746 6.915 104.749 7.09837L106.082 22.4687L113.002 10.7718C113.183 10.4938 113.314 10.228 113.398 9.97234C113.481 9.71671 113.554 9.45912 113.615 9.19877C113.887 8.04864 113.125 7.26094 111.328 6.83567L111.559 5.86106L118.607 7.53031L118.376 8.50453C117.055 8.19157 115.815 9.03228 114.658 11.0251L104.653 27.3438L103.388 27.1812Z" fill="white"></path>
  <path d="M118.859 33.8991L119.547 33.1714C121.034 34.5776 122.276 34.7543 123.271 33.7016L133.674 22.695C134.961 21.3344 134.803 19.898 133.202 18.3842L133.89 17.657L146.649 29.7163L142.556 34.4355L141.712 33.8221C142.392 32.811 142.816 31.9259 142.983 31.1657C143.15 30.4055 143.139 29.7132 142.948 29.0888C142.757 28.4649 142.414 27.8798 141.919 27.3352C141.423 26.7901 140.86 26.2196 140.23 25.6239L139.55 24.9815C138.321 23.82 137.363 23.6032 136.675 24.3308L132.571 28.6722C132.113 29.1579 132.078 29.584 132.465 29.9504L133.29 30.7302C133.694 31.1119 134.089 31.4472 134.476 31.7354C134.862 32.0245 135.268 32.209 135.695 32.2915C136.123 32.3739 136.585 32.3213 137.084 32.1348C137.582 31.9471 138.146 31.5851 138.777 31.0479L139.675 31.8961L133.737 38.1784L132.839 37.3298C133.339 36.6709 133.689 36.1059 133.889 35.6362C134.088 35.1658 134.154 34.7237 134.088 34.3082C134.02 33.8936 133.836 33.4891 133.534 33.0961C133.232 32.7034 132.822 32.262 132.304 31.7735L132.013 31.4987C131.269 30.7954 130.646 30.7106 130.14 31.2434L125.762 35.877C124.89 36.7986 125.101 37.8702 126.396 39.0937L127.147 39.8045C128.166 40.7673 129.059 41.4662 129.827 41.9009C130.595 42.3356 131.33 42.5712 132.031 42.6062C132.732 42.6419 133.437 42.5194 134.146 42.2398C134.853 41.9602 135.651 41.5954 136.535 41.1454L137.007 41.9587L131.812 46.1426L118.859 33.8991Z" fill="white"></path>
  <path d="M151.463 58.0279C151.695 58.6539 151.961 59.2433 152.261 59.7961C152.561 60.3494 152.942 60.801 153.404 61.152C153.867 61.5027 154.421 61.7183 155.069 61.7992C155.715 61.8793 156.508 61.7458 157.447 61.3975C158.239 61.1033 158.844 60.7189 159.262 60.2442C159.679 59.769 159.955 59.2507 160.092 58.6904C160.227 58.1292 160.257 57.5544 160.182 56.9658C160.106 56.3767 159.971 55.8211 159.778 55.2997L159.221 53.7981C158.927 53.0049 158.195 52.825 157.027 53.2585L151.05 55.4752C150.767 55.6747 150.704 55.9829 150.859 56.4003L151.463 58.0279ZM147.023 72.4539C146.773 72.5474 146.448 72.6016 146.052 72.6181C145.654 72.6349 145.254 72.5815 144.853 72.4575C144.451 72.3342 144.071 72.1425 143.714 71.8834C143.357 71.6242 143.097 71.2751 142.935 70.8373C142.463 69.5646 142.329 68.546 142.532 67.7831C142.734 67.0189 143.262 66.3137 144.114 65.6654C144.813 65.1208 145.571 64.5553 146.386 63.9687C147.201 63.3816 147.924 62.7753 148.558 62.1482C149.192 61.5215 149.671 60.8634 149.998 60.1731C150.323 59.4828 150.347 58.7622 150.068 58.0107L149.72 57.0718C149.511 56.5091 149.276 56.2275 149.016 56.2299L142.225 58.7485C140.869 59.2511 140.546 60.4617 141.259 62.3815L140.319 62.7298L137.047 53.9045L137.986 53.5562C138.667 55.3923 139.685 56.0591 141.041 55.5561L155.843 50.0665C157.178 49.5714 157.478 48.3329 156.743 46.3511L157.714 45.991L159.165 49.9032C159.42 50.5915 159.641 51.1735 159.83 51.6498C160.018 52.1253 160.206 52.5835 160.394 53.0245C160.58 53.4655 160.774 53.9398 160.974 54.4468C161.173 54.9541 161.409 55.5726 161.68 56.3029C162.013 57.2002 162.196 58.0931 162.229 58.9829C162.262 59.8723 162.155 60.6891 161.909 61.4332C161.663 62.1765 161.289 62.8319 160.787 63.3977C160.285 63.9632 159.669 64.3825 158.939 64.6527C158.209 64.924 157.512 65.0277 156.848 64.9657C156.183 64.9036 155.552 64.7041 154.954 64.3688C154.354 64.0335 153.785 63.5854 153.245 63.0263C152.705 62.4675 152.201 61.8121 151.732 61.0601L151.639 61.0955C151.53 62.2743 151.238 63.3259 150.762 64.2502C150.286 65.1746 149.756 65.8747 149.175 66.3518C148.803 66.6322 148.357 66.9636 147.835 67.3472C147.312 67.7305 146.831 68.129 146.391 68.5409C145.95 68.9536 145.601 69.3738 145.345 69.801C145.088 70.2283 145.037 70.6508 145.192 71.0686C145.378 71.5692 145.983 71.7597 147.006 71.6415L147.023 72.4539Z" fill="white"></path>
  <path d="M19.6295 113.951C21.1558 112.894 22.2368 111.685 22.8741 110.325C23.5107 108.963 23.5566 107.565 23.0104 106.13C22.56 104.944 21.8878 104.116 20.9948 103.648C20.1019 103.177 19.1767 103.125 18.2202 103.488C17.4714 103.773 16.9185 104.275 16.5615 104.994C16.2034 105.713 16.0004 106.665 15.9517 107.851C15.8932 109.325 15.8795 110.652 15.9121 111.83C15.9431 113.009 15.8602 114.057 15.6627 114.978C15.4652 115.898 15.08 116.7 14.5067 117.382C13.9326 118.065 13.022 118.643 11.7741 119.117C11.0045 119.41 10.1995 119.579 9.36073 119.625C8.52119 119.671 7.70993 119.556 6.92695 119.283C6.14474 119.01 5.4183 118.541 4.75037 117.879C4.08204 117.216 3.53426 116.325 3.10625 115.202C2.82981 114.473 2.64289 113.825 2.54433 113.255C2.44695 112.685 2.40219 112.19 2.40886 111.77C2.41514 111.351 2.45284 111.01 2.5192 110.747C2.58517 110.483 2.63425 110.297 2.66528 110.192C2.22313 109.907 1.81278 109.61 1.43386 109.302C1.05493 108.994 0.738826 108.662 0.484375 108.307C1.97731 107.477 3.31083 106.774 4.48413 106.196C5.65704 105.618 6.70077 105.157 7.61609 104.808L8.00797 105.838C7.09265 106.186 6.32694 106.692 5.71045 107.354C5.09277 108.018 4.62549 108.743 4.30704 109.531C3.98662 110.319 3.81502 111.134 3.79067 111.977C3.76594 112.82 3.88413 113.584 4.14486 114.27C4.31175 114.708 4.56816 115.163 4.91529 115.638C5.26202 116.113 5.6806 116.526 6.16987 116.875C6.65954 117.224 7.20378 117.469 7.80457 117.61C8.40457 117.751 9.03677 117.695 9.70157 117.443C10.5321 117.126 11.1745 116.626 11.6268 115.942C12.0792 115.257 12.2967 114.36 12.2779 113.248C12.2583 111.946 12.2253 110.703 12.1789 109.518C12.1314 108.334 12.1997 107.248 12.3843 106.262C12.5673 105.275 12.9368 104.403 13.4916 103.644C14.0465 102.885 14.9265 102.277 16.1316 101.819C17.0037 101.488 17.8519 101.343 18.6761 101.386C19.5011 101.43 20.2688 101.62 20.9795 101.957C21.6898 102.294 22.3197 102.762 22.8694 103.363C23.4176 103.963 23.8397 104.649 24.1323 105.418C24.4723 106.311 24.6019 107.137 24.521 107.894C24.4397 108.651 24.3777 109.347 24.3337 109.983C25.0986 110.43 25.7198 110.967 26.1973 111.596C25.3503 112.251 24.4158 112.845 23.3925 113.376C22.3688 113.909 21.2332 114.413 19.9853 114.887L19.6295 113.951Z" fill="white"></path>
  <path d="M17.5586 138.993L18.287 138.307C19.9193 140.04 21.4802 140.206 22.9712 138.803L34.1745 128.256C34.7741 127.692 34.6999 127.012 33.9527 126.219C32.9466 125.149 31.7859 124.606 30.472 124.59C29.1577 124.574 27.6514 125.061 25.9539 126.047L25.4387 125.111L31.2326 120.894C31.535 121.313 31.8263 121.704 32.1067 122.067C32.3863 122.428 32.6718 122.764 32.9619 123.072L41.77 132.428C42.0904 132.768 42.4344 133.102 42.8023 133.427C43.1698 133.753 43.5539 134.08 43.9536 134.407L38.874 139.188L38.1593 138.624C40.5692 135.99 40.6509 133.48 38.4048 131.093C37.6449 130.286 36.9904 130.143 36.4394 130.661L25.2365 141.209C23.7455 142.612 23.8241 144.188 25.4709 145.939L24.7425 146.625L17.5586 138.993Z" fill="white"></path>
  <path d="M55.4379 145.883L49.8691 151.054C49.425 151.439 49.1579 151.734 49.0657 151.936C48.9286 152.24 49.2341 152.562 49.9841 152.902L53.815 154.639C54.4225 154.914 54.7818 154.93 54.8917 154.687C54.9381 154.586 54.9781 154.201 55.0127 153.532L55.4379 145.883ZM50.6831 163.406L51.0962 162.495C51.3985 162.582 51.7154 162.678 52.048 162.779C52.3806 162.881 52.6869 162.958 52.9684 163.013C53.2492 163.068 53.4966 163.087 53.7102 163.074C53.9238 163.061 54.0581 162.994 54.1131 162.873C54.1292 162.782 54.1673 162.659 54.2262 162.502C54.2843 162.346 54.3137 162.133 54.3141 161.864L54.6408 157.505C54.6565 156.877 54.1578 156.333 53.1447 155.873L48.6149 153.821C47.8444 153.471 47.2598 153.522 46.86 153.973L44.4007 156.651C44.2374 156.795 44.0775 157.039 43.9228 157.382C43.5019 158.31 44.1832 159.177 45.9671 159.986L45.4849 161.05L38.6445 157.949L39.1271 156.886C39.733 157.112 40.3263 157.136 40.9071 156.961C41.4871 156.785 42.0753 156.417 42.6714 155.857L57.8372 141.803L58.5836 142.582L57.6031 163.905C57.6938 164.459 57.7971 164.823 57.9137 164.999C57.9353 165.057 58.0775 165.188 58.3394 165.393C58.6009 165.597 58.963 165.889 59.4255 166.27L59.0124 167.182L50.6831 163.406Z" fill="white"></path>
  <path d="M76.5697 170.06L76.6007 169.059C78.9807 169.133 80.2019 168.147 80.2659 166.1L80.7438 150.721C80.7693 149.898 80.2369 149.469 79.1468 149.436C77.6794 149.39 76.4747 149.826 75.5334 150.743C74.5918 151.661 73.8697 153.068 73.3655 154.966L72.3398 154.668L73.4609 147.589C73.9702 147.672 74.452 147.743 74.9067 147.801C75.3615 147.86 75.7997 147.896 76.2226 147.909L89.0661 148.308C89.5338 148.323 90.0124 148.315 90.5033 148.286C90.9929 148.257 91.4956 148.216 92.01 148.165L91.7932 155.138L90.8881 155.244C90.7326 151.677 89.0174 149.843 85.7421 149.741C84.6344 149.706 84.0697 150.068 84.0466 150.824L83.5687 166.204C83.5051 168.25 84.6745 169.309 87.076 169.384L87.0454 170.385L76.5697 170.06Z" fill="white"></path>
  <path d="M107.558 167.316L107.243 166.366C109.249 165.701 110.01 164.638 109.526 163.178L104.844 149.057C104.226 147.196 102.872 146.611 100.781 147.304L100.465 146.354L109.653 143.307L109.968 144.258C108.025 144.902 107.363 146.155 107.98 148.017L112.662 162.138C113.146 163.598 114.402 163.991 116.43 163.319L116.745 164.269L107.558 167.316Z" fill="white"></path>
  <path d="M141.173 148.361C142.115 147.545 142.752 146.65 143.083 145.671C143.414 144.694 143.501 143.673 143.341 142.605C143.183 141.537 142.805 140.447 142.209 139.333C141.612 138.218 140.849 137.124 139.918 136.049C139.045 135.041 138.097 134.158 137.073 133.399C136.047 132.641 134.992 132.092 133.905 131.756C132.819 131.419 131.717 131.343 130.6 131.532C129.483 131.721 128.403 132.267 127.36 133.169C126.401 134 125.77 134.912 125.47 135.907C125.169 136.903 125.117 137.931 125.316 138.994C125.514 140.057 125.926 141.125 126.549 142.201C127.172 143.279 127.92 144.321 128.791 145.328C129.751 146.437 130.755 147.375 131.802 148.143C132.85 148.911 133.906 149.451 134.971 149.763C136.036 150.076 137.096 150.128 138.152 149.92C139.207 149.711 140.215 149.191 141.173 148.361ZM141.823 149.519C140.629 150.554 139.333 151.284 137.939 151.713C136.544 152.141 135.142 152.28 133.732 152.132C132.323 151.984 130.957 151.561 129.635 150.866C128.313 150.172 127.135 149.228 126.1 148.033C125.139 146.923 124.397 145.675 123.874 144.288C123.35 142.902 123.097 141.488 123.114 140.045C123.131 138.603 123.433 137.194 124.022 135.816C124.61 134.439 125.526 133.211 126.771 132.133C127.999 131.071 129.317 130.305 130.723 129.838C132.129 129.372 133.537 129.197 134.948 129.314C136.36 129.432 137.727 129.831 139.051 130.509C140.374 131.189 141.568 132.141 142.631 133.369C143.563 134.445 144.286 135.689 144.799 137.098C145.313 138.507 145.565 139.945 145.554 141.412C145.543 142.878 145.238 144.319 144.64 145.735C144.04 147.151 143.102 148.413 141.823 149.519Z" fill="white"></path>
  <path d="M168.94 107.782L146.039 114.583L158.545 119.534C161.008 120.508 162.66 119.93 163.504 117.799L164.434 118.167L161.487 125.615L160.555 125.247C161.243 123.51 160.355 122.152 157.888 121.176L144.179 115.749C143.309 115.405 142.468 116.257 141.658 118.306L140.727 117.937L142.972 112.263L163.264 106.252L152.129 101.846C149.849 100.943 148.291 101.547 147.455 103.657L146.525 103.289L149.473 95.8409L150.404 96.2084C149.65 98.1125 150.414 99.5151 152.693 100.417L169.042 106.889L168.94 107.782Z" fill="white"></path>
  <path d="M159.287 83.1847C159.287 84.8442 157.942 86.1895 156.282 86.1895C154.623 86.1895 153.277 84.8442 153.277 83.1847C153.277 81.5253 154.623 80.18 156.282 80.18C157.942 80.18 159.287 81.5253 159.287 83.1847Z" fill="#F599A7"></path>
  <path d="M16.3649 83.1847C16.3649 84.8442 15.0196 86.1895 13.3606 86.1895C11.7008 86.1895 10.3555 84.8442 10.3555 83.1847C10.3555 81.5253 11.7008 80.18 13.3606 80.18C15.0196 80.18 16.3649 81.5253 16.3649 83.1847Z" fill="#F599A7"></path>
  <path d="M103.13 92.3821C108.682 87.2192 108.7 80.8348 105.764 75.0008C100.346 64.2373 91.6262 57.5595 78.9476 57.8568C76.4042 57.9169 73.8012 59.2221 71.4028 60.3349C69.7033 61.1238 68.7208 61.1615 68.4828 59.1781C68.1361 56.2932 67.5526 53.3477 67.8306 50.502C68.1075 47.6685 70.1921 46.5525 72.7948 47.7482C82.065 52.0099 91.7318 51.953 101.56 50.9548C105.257 50.579 106.669 51.3082 107.619 54.1079C110.13 61.5094 114.492 67.7564 119.49 73.6394C120.331 74.6294 121.168 75.6707 121.754 76.8177C123.59 80.4126 122.881 83.3102 119.722 85.775C115.69 88.9211 111.282 91.3321 106.291 92.5835C105.409 92.8042 104.481 92.8486 103.574 92.9746C103.426 92.7771 103.278 92.58 103.13 92.3821Z" fill="#F599A7"></path>
  <path d="M80.0853 120.496C73.903 121.115 67.5496 123.142 61.5496 120.782C56.1059 118.641 51.0699 115.375 46.0535 112.283C43.7666 110.873 43.3072 108.233 43.4277 105.539C43.703 99.3917 43.9092 93.2393 44.0368 87.0869C44.1247 82.8492 46.5758 80.6659 50.786 81.2899C51.0444 81.3284 51.2969 81.403 51.5529 81.4572C57.3362 82.6638 57.2981 82.6607 56.7747 88.3678C56.2167 94.4495 57.1779 100.356 59.1935 106.085C60.3111 109.261 62.5736 111.619 65.5148 113.127C68.7606 114.791 72.1815 116.113 75.5165 117.606C77.0844 118.308 78.6304 119.06 80.1862 119.789C80.1524 120.025 80.1186 120.26 80.0853 120.496Z" fill="#F599A7"></path>
  <path d="M77.5859 116.276C81.3658 115.896 84.8606 116.076 88.0196 115.133C101.145 111.217 112.034 104.442 117.228 90.8825C118.46 87.6669 118.892 87.6198 121.557 89.9876C122.719 91.0203 123.854 92.1614 124.708 93.4474C127.111 97.0651 126.404 101.195 122.869 103.647C117.798 107.167 113.436 111.258 110.163 116.581C106.71 122.198 101.496 123.974 94.9106 123.391C88.3919 122.814 82.7445 120.772 77.5859 116.276Z" fill="#F599A7"></path>
  <path d="M60.7194 82.7619C63.3789 91.2357 67.5962 98.3376 75.8525 102.21C84.2259 106.138 92.1736 103.435 100.032 100.129C100.242 100.293 100.452 100.456 100.662 100.62C99.8664 102.25 99.3422 104.1 98.2266 105.47C94.552 109.982 89.9027 113.211 84.1159 114.327C82.4757 114.643 80.6294 113.928 78.8836 113.649C77.3054 113.396 75.6385 112.608 74.1805 112.9C69.6358 113.811 66.2132 112.277 63.7657 108.626C58.3888 100.605 58.3665 91.8514 60.7194 82.7619Z" fill="#F599A7"></path>
  <path d="M76.7006 89.0078C69.3533 87.756 64.5953 79.9905 66.4232 72.7029C66.7573 71.3713 66.9537 69.986 67.0353 68.6152C67.3173 63.8741 73.0397 59.2877 78.261 59.7373C81.7295 60.0353 85.1925 60.4036 88.6551 60.7661C92.1561 61.1324 96.0526 64.2122 97.8118 68.5551C94.3751 65.7271 91.1627 64.2569 87.3534 65.0108C83.5837 65.7569 80.6453 67.8212 78.1915 70.6873C73.1807 76.5409 72.7377 81.4355 76.7006 89.0078Z" fill="#F599A7"></path>
  <path d="M98.4024 71.9656C104.813 75.0414 107.065 82.0467 103.613 87.9949C102.302 90.2547 100.911 92.4686 99.536 94.6907C95.2877 101.557 87.8096 102.916 81.4004 97.9318C80.0308 96.8665 78.9824 95.3578 77.5479 94.4131C75.0843 92.7898 72.4334 91.45 69.7773 89.5577C73.1151 90.122 76.6365 90.1934 79.7512 91.3542C85.9444 93.6623 90.6714 91.2477 95.0584 87.4659C99.3644 83.7524 100.104 78.9418 98.5751 73.649C98.4554 73.2331 98.3568 72.8102 98.2633 72.3869C98.248 72.3151 98.3136 72.2255 98.4024 71.9656Z" fill="#F599A7"></path>
  <path d="M65.3266 54.5244C58.3787 62.5651 53.9721 71.1148 59.8571 81.6172C53.8948 81.3816 47.6136 75.431 46.2357 69.3285C45.022 63.954 45.4056 63.2661 50.2653 60.6607C53.8744 58.7256 57.3526 56.5478 60.9574 54.6025C61.987 54.0469 63.2521 53.9256 64.409 53.6052C64.7149 53.9114 65.0207 54.2181 65.3266 54.5244Z" fill="#F599A7"></path>
  <path d="M81.5906 71.6884C82.6296 68.4391 84.9994 67.1393 87.6582 66.2656C89.9993 65.4968 92.6105 65.2816 94.1302 67.47C95.6054 69.5963 97.1871 72.1954 97.2755 74.639C97.6277 84.3399 92.9848 90.722 82.9759 90.2748C82.0987 90.2347 81.2325 89.9438 80.3984 89.5951C89.3655 87.1621 92.5579 83.8385 91.6677 77.7116C90.9542 72.8009 88.7372 71.4081 81.5906 71.6884Z" fill="#F599A7"></path>
  <path d="M73.2821 89.0566C64.4799 86.7297 58.046 78.1286 58.346 69.8263C58.5416 64.409 62.7129 60.8373 68.3831 61.5241C62.0069 71.8545 61.829 81.2232 73.2821 89.0566Z" fill="#F599A7"></path>
  <path d="M82.8232 78.2225C80.0121 78.2802 79.3147 79.9687 79.2495 82.0114C79.1584 84.8787 80.8049 85.8246 85.8028 85.9743C83.318 88.9476 78.2671 88.3751 76.5307 84.9235C75.0271 81.936 75.5266 78.5971 77.8732 75.9497C80.0258 73.5207 83.8355 72.4306 86.7056 73.4225C89.0436 74.2302 90.017 76.0008 89.6871 78.8453C89.3922 81.3988 87.6814 83.2739 85.4549 83.4773C83.7582 83.6328 82.7545 83.0119 82.8173 81.1546C82.8492 80.2255 82.8232 79.2945 82.8232 78.2225Z" fill="#F599A7"></path>
  <path d="M95.7539 110.461C96.5542 109.511 97.043 108.859 97.6054 108.277C100.37 105.413 102.184 102.152 102.054 98.0344C101.99 95.9835 102.882 95.0101 105.046 94.5805C107.977 93.997 110.795 92.8484 113.725 91.9229C114.019 98.1177 104.952 107.493 95.7539 110.461Z" fill="#F599A7"></path>
  <path d="M67.707 93.0009C72.6005 90.6998 75.4168 93.7493 82.5885 101.243C78.5683 103.173 69.5114 98.157 67.707 93.0009Z" fill="#F599A7"></path>
</svg>